<?xml version="1.0" standalone="no"?>
<!DOCTYPE svg PUBLIC "-//W3C//DTD SVG 20010904//EN"
 "http://www.w3.org/TR/2001/REC-SVG-20010904/DTD/svg10.dtd">
<svg version="1.0" xmlns="http://www.w3.org/2000/svg"
 width="68.000000pt" height="88.000000pt" viewBox="0 0 68.000000 88.000000"
 preserveAspectRatio="xMidYMid meet">

<g transform="translate(0.000000,88.000000) scale(0.100000,-0.100000)"
fill="#000000" stroke="none">
<path d="M260 837 c-52 -17 -114 -84 -135 -147 -22 -67 -16 -159 14 -218 22
-43 38 -50 73 -31 24 13 29 9 22 -18 -5 -16 -19 -25 -57 -34 -73 -17 -120 -43
-137 -75 -10 -18 -15 -58 -15 -123 l0 -96 298 -3 297 -2 0 104 c0 98 -2 106
-26 135 -19 23 -46 37 -102 54 -65 20 -78 27 -80 47 -3 19 -1 21 15 15 51 -21
58 -18 83 36 49 104 26 233 -54 307 -62 57 -123 72 -196 49z m117 -42 c48 -20
71 -41 95 -88 39 -78 28 -222 -17 -222 -13 0 -19 5 -16 15 9 32 11 136 4 145
-11 14 -102 75 -112 75 -5 0 -21 -18 -36 -39 -15 -22 -42 -50 -61 -63 -27 -18
-34 -30 -34 -56 0 -18 5 -42 10 -52 8 -15 6 -21 -9 -29 -16 -9 -21 -5 -35 29
-43 108 4 243 99 286 40 18 68 17 112 -1z m0 -150 c29 -18 33 -25 33 -64 0
-78 -53 -134 -110 -116 -23 7 -60 60 -60 86 0 15 89 117 100 115 3 -1 20 -10
37 -21z m-1 -242 c9 -34 1 -54 -29 -77 l-29 -21 -27 31 c-21 23 -27 39 -24 60
4 28 7 29 54 29 43 0 51 -3 55 -22z m-141 -63 c8 -25 66 -70 90 -70 10 0 38
21 62 46 33 34 49 44 63 39 47 -15 2 -106 -68 -137 -75 -34 -166 2 -198 78
-18 43 -18 52 4 57 33 9 41 7 47 -13z m-82 -64 c20 -42 35 -60 72 -81 55 -33
132 -37 181 -12 42 22 91 79 99 116 8 36 27 39 55 11 17 -17 20 -33 20 -105
l0 -85 -257 2 -258 3 0 81 c0 67 4 86 19 103 29 32 42 26 69 -33z"/>
</g>
</svg>
