<?xml version="1.0" standalone="no"?>
<!DOCTYPE svg PUBLIC "-//W3C//DTD SVG 20010904//EN"
 "http://www.w3.org/TR/2001/REC-SVG-20010904/DTD/svg10.dtd">
<svg version="1.0" xmlns="http://www.w3.org/2000/svg"
 width="75.000000pt" height="88.000000pt" viewBox="0 0 75.000000 88.000000"
 preserveAspectRatio="xMidYMid meet">

<g transform="translate(0.000000,88.000000) scale(0.100000,-0.100000)"
fill="#000000" stroke="none">
<path d="M256 771 c-58 -67 -62 -157 -11 -259 40 -79 80 -112 137 -112 52 0
96 36 134 110 59 113 41 217 -43 253 -55 23 -199 28 -217 8z m197 -43 c30 -12
57 -54 57 -90 0 -50 -118 -27 -161 31 -27 37 -35 38 -66 9 -30 -28 -41 -16
-21 26 16 33 17 33 90 34 40 0 86 -4 101 -10z m-117 -109 c23 -26 74 -49 109
-49 34 0 40 -21 19 -65 -45 -96 -155 -75 -178 33 -8 32 9 102 23 102 4 0 16
-10 27 -21z"/>
<path d="M227 341 c-123 -32 -148 -65 -145 -191 l3 -85 295 0 295 0 3 92 c3
92 3 93 -30 128 -63 68 -270 95 -421 56z m207 -30 c6 -8 -45 -111 -54 -111
-10 0 -59 108 -53 114 10 9 101 7 107 -3z m-106 -108 c21 -42 43 -73 52 -73 9
0 35 37 63 89 l47 89 36 -8 c20 -5 38 -10 40 -13 3 -3 -2 -29 -10 -58 -9 -29
-16 -68 -16 -86 l0 -33 -160 0 -160 0 0 33 c0 19 -7 56 -15 83 -19 64 -21 61
23 72 44 11 46 9 100 -95z m-159 -4 c17 -80 15 -89 -19 -89 -30 0 -30 0 -30
56 0 56 14 99 30 89 4 -3 13 -28 19 -56z m471 -31 c0 -55 -1 -58 -25 -58 -23
0 -25 3 -25 49 0 27 5 62 11 78 10 27 11 27 25 9 8 -12 14 -43 14 -78z"/>
</g>
</svg>
